<?xml version="1.0" encoding="UTF-8"?>
<svg xmlns="http://www.w3.org/2000/svg" xmlns:xlink="http://www.w3.org/1999/xlink" width="15pt" height="20pt" viewBox="0 0 15 20" version="1.1">
<g id="surface1">
<path style=" stroke:none;fill-rule:nonzero;fill:rgb(0%,0%,0%);fill-opacity:1;" d="M 15 4.375 L 15 18.125 C 15 19.160156 14.160156 20 13.125 20 L 1.875 20 C 0.839844 20 0 19.160156 0 18.125 L 0 4.375 C 0 3.339844 0.839844 2.5 1.875 2.5 L 5 2.5 C 5 1.121094 6.121094 0 7.5 0 C 8.878906 0 10 1.121094 10 2.5 L 13.125 2.5 C 14.160156 2.5 15 3.339844 15 4.375 Z M 7.5 1.5625 C 6.980469 1.5625 6.5625 1.980469 6.5625 2.5 C 6.5625 3.019531 6.980469 3.4375 7.5 3.4375 C 8.019531 3.4375 8.4375 3.019531 8.4375 2.5 C 8.4375 1.980469 8.019531 1.5625 7.5 1.5625 M 11.25 6.015625 L 11.25 5.234375 C 11.25 5.105469 11.144531 5 11.015625 5 L 3.984375 5 C 3.855469 5 3.75 5.105469 3.75 5.234375 L 3.75 6.015625 C 3.75 6.144531 3.855469 6.25 3.984375 6.25 L 11.015625 6.25 C 11.144531 6.25 11.25 6.144531 11.25 6.015625 Z M 11.25 6.015625 "/>
</g>
</svg>
