<?xml version="1.0" encoding="UTF-8"?>
<svg xmlns="http://www.w3.org/2000/svg" xmlns:xlink="http://www.w3.org/1999/xlink" width="20pt" height="20pt" viewBox="0 0 20 20" version="1.1">
<g id="surface1">
<path style=" stroke:none;fill-rule:nonzero;fill:rgb(0%,0%,0%);fill-opacity:1;" d="M 10 0.3125 C 4.648438 0.3125 0.3125 4.648438 0.3125 10 C 0.3125 15.351562 4.648438 19.6875 10 19.6875 C 15.351562 19.6875 19.6875 15.351562 19.6875 10 C 19.6875 4.648438 15.351562 0.3125 10 0.3125 Z M 13.613281 12.539062 L 12.832031 13.515625 C 12.617188 13.785156 12.222656 13.828125 11.953125 13.613281 L 9.335938 11.671875 C 8.964844 11.375 8.75 10.925781 8.75 10.449219 L 8.75 4.375 C 8.75 4.03125 9.03125 3.75 9.375 3.75 L 10.625 3.75 C 10.96875 3.75 11.25 4.03125 11.25 4.375 L 11.25 10 L 13.515625 11.660156 C 13.785156 11.875 13.828125 12.269531 13.613281 12.539062 Z M 13.613281 12.539062 "/>
</g>
</svg>
