<?xml version="1.0" encoding="UTF-8"?>
<svg xmlns="http://www.w3.org/2000/svg" xmlns:xlink="http://www.w3.org/1999/xlink" width="14pt" height="13pt" viewBox="0 0 14 13" version="1.1">
<g id="surface1">
<path style=" stroke:none;fill-rule:nonzero;fill:rgb(0%,0%,0%);fill-opacity:1;" d="M 9.785156 2.113281 L 11.976562 4.402344 C 12.070312 4.5 12.070312 4.65625 11.976562 4.753906 L 6.667969 10.296875 L 4.414062 10.558594 C 4.113281 10.59375 3.855469 10.328125 3.890625 10.015625 L 4.140625 7.65625 L 9.449219 2.113281 C 9.542969 2.015625 9.691406 2.015625 9.785156 2.113281 Z M 13.722656 1.53125 L 12.535156 0.292969 C 12.167969 -0.09375 11.566406 -0.09375 11.195312 0.292969 L 10.335938 1.191406 C 10.242188 1.289062 10.242188 1.445312 10.335938 1.542969 L 12.527344 3.832031 C 12.621094 3.929688 12.769531 3.929688 12.863281 3.832031 L 13.722656 2.933594 C 14.09375 2.542969 14.09375 1.917969 13.722656 1.53125 Z M 9.332031 8.789062 L 9.332031 11.375 L 1.554688 11.375 L 1.554688 3.25 L 7.140625 3.25 C 7.21875 3.25 7.292969 3.21875 7.347656 3.160156 L 8.320312 2.144531 C 8.503906 1.953125 8.375 1.625 8.113281 1.625 L 1.167969 1.625 C 0.523438 1.625 0 2.171875 0 2.84375 L 0 11.78125 C 0 12.453125 0.523438 13 1.167969 13 L 9.722656 13 C 10.367188 13 10.890625 12.453125 10.890625 11.78125 L 10.890625 7.773438 C 10.890625 7.503906 10.574219 7.367188 10.390625 7.558594 L 9.417969 8.574219 C 9.363281 8.632812 9.332031 8.710938 9.332031 8.789062 Z M 9.332031 8.789062 "/>
</g>
</svg>
