<?xml version="1.0" encoding="UTF-8"?>
<svg xmlns="http://www.w3.org/2000/svg" xmlns:xlink="http://www.w3.org/1999/xlink" width="20pt" height="20pt" viewBox="0 0 20 20" version="1.1">
<g id="surface1">
<path style=" stroke:none;fill-rule:nonzero;fill:rgb(0%,0%,0%);fill-opacity:1;" d="M 19.609375 2.25 C 20.441406 1.417969 19.851562 0 18.679688 0 L 1.320312 0 C 0.148438 0 -0.441406 1.417969 0.390625 2.25 L 8.75 10.609375 L 8.75 18.125 L 6.5625 18.125 C 5.699219 18.125 5 18.824219 5 19.6875 C 5 19.859375 5.140625 20 5.3125 20 L 14.6875 20 C 14.859375 20 15 19.859375 15 19.6875 C 15 18.824219 14.300781 18.125 13.4375 18.125 L 11.25 18.125 L 11.25 10.609375 Z M 17.335938 1.875 L 15.460938 3.75 L 4.539062 3.75 L 2.664062 1.875 Z M 17.335938 1.875 "/>
</g>
</svg>
