<?xml version="1.0" encoding="UTF-8"?>
<svg xmlns="http://www.w3.org/2000/svg" xmlns:xlink="http://www.w3.org/1999/xlink" width="20pt" height="20pt" viewBox="0 0 20 20" version="1.1">
<g id="surface1">
<path style=" stroke:none;fill-rule:nonzero;fill:rgb(0%,0%,0%);fill-opacity:1;" d="M 19.449219 5.984375 L 10.730469 2.636719 C 10.257812 2.453125 9.742188 2.453125 9.269531 2.636719 L 0.550781 5.984375 C -0.183594 6.265625 -0.183594 7.484375 0.550781 7.765625 L 2.070312 8.347656 C 1.738281 8.863281 1.53125 9.492188 1.511719 10.179688 C 1.210938 10.398438 1 10.785156 1 11.25 C 1 11.671875 1.175781 12.023438 1.433594 12.25 L 0.636719 16.738281 C 0.566406 17.128906 0.804688 17.5 1.125 17.5 L 2.875 17.5 C 3.195312 17.5 3.433594 17.128906 3.363281 16.738281 L 2.566406 12.253906 C 2.824219 12.023438 3 11.671875 3 11.25 C 3 10.796875 2.796875 10.421875 2.511719 10.199219 C 2.535156 9.613281 2.773438 9.09375 3.15625 8.765625 L 9.269531 11.113281 C 9.550781 11.222656 10.09375 11.359375 10.730469 11.113281 L 19.449219 7.765625 C 20.183594 7.484375 20.183594 6.265625 19.449219 5.984375 Z M 11.023438 12.308594 C 10.132812 12.648438 9.375 12.460938 8.976562 12.308594 L 4.441406 10.566406 L 4 15 C 4 16.382812 6.6875 17.5 10 17.5 C 13.3125 17.5 16 16.382812 16 15 L 15.558594 10.566406 Z M 11.023438 12.308594 "/>
</g>
</svg>
