<?xml version="1.0" encoding="UTF-8"?>
<svg xmlns="http://www.w3.org/2000/svg" xmlns:xlink="http://www.w3.org/1999/xlink" width="15pt" height="15pt" viewBox="0 0 15 15" version="1.1">
<g id="surface1">
<path style=" stroke:none;fill-rule:nonzero;fill:rgb(0%,0%,0%);fill-opacity:1;" d="M 13.871094 0.964844 L 10.015625 0.964844 L 9.71875 0.398438 C 9.585938 0.15625 9.320312 0 9.027344 0 L 5.355469 0 C 5.066406 0 4.800781 0.15625 4.667969 0.398438 L 4.367188 0.964844 L 0.515625 0.964844 C 0.230469 0.964844 0 1.179688 0 1.445312 L 0 2.410156 C 0 2.671875 0.230469 2.890625 0.515625 2.890625 L 13.871094 2.890625 C 14.15625 2.890625 14.386719 2.671875 14.386719 2.410156 L 14.386719 1.445312 C 14.386719 1.179688 14.15625 0.964844 13.871094 0.964844 Z M 1.707031 14.058594 C 1.757812 14.820312 2.433594 15.410156 3.246094 15.410156 L 11.136719 15.410156 C 11.957031 15.410156 12.628906 14.820312 12.675781 14.058594 L 13.359375 3.855469 L 1.027344 3.855469 Z M 1.707031 14.058594 "/>
</g>
</svg>
